<svg width="1920" height="1080" viewBox="0 0 1920 1080" xmlns="http://www.w3.org/2000/svg"><rect width="1920" height="1080" fill="#df6688"/><path d="M 0,1080 C 0,1080 0,180 0,180 C 109.10256410256412,204.66666666666669 218.20512820512823,229.33333333333334 330,212 C 441.79487179487177,194.66666666666666 556.2820512820513,135.33333333333331 665,135 C 773.7179487179487,134.66666666666669 876.6666666666665,193.33333333333334 993,222 C 1109.3333333333335,250.66666666666666 1239.051282051282,249.33333333333334 1334,222 C 1428.948717948718,194.66666666666666 1489.128205128205,141.33333333333331 1581,130 C 1672.871794871795,118.66666666666667 1796.4358974358975,149.33333333333334 1920,180 C 1920,180 1920,1080 1920,1080 Z" fill="#3d1053" opacity="0.09999999999999999"/><path d="M 0,1080 C 0,1080 0,360 0,360 C 103.72820512820513,333.6333333333333 207.45641025641027,307.2666666666667 301,305 C 394.54358974358973,302.7333333333333 477.90256410256404,324.56666666666666 604,341 C 730.097435897436,357.43333333333334 898.9333333333332,368.4666666666667 1019,386 C 1139.0666666666668,403.5333333333333 1210.3641025641027,427.56666666666666 1303,411 C 1395.6358974358973,394.43333333333334 1509.6102564102564,337.26666666666665 1616,322 C 1722.3897435897436,306.73333333333335 1821.1948717948717,333.3666666666667 1920,360 C 1920,360 1920,1080 1920,1080 Z" fill="#3d1053" opacity="0.19999999999999998"/><path d="M 0,1080 C 0,1080 0,540 0,540 C 91.3692307692308,556.3205128205128 182.7384615384616,572.6410256410256 290,565 C 397.2615384615384,557.3589743589744 520.4153846153846,525.7564102564103 637,512 C 753.5846153846154,498.2435897435897 863.5999999999999,502.33333333333337 978,529 C 1092.4,555.6666666666666 1211.1846153846152,604.9102564102565 1299,595 C 1386.8153846153848,585.0897435897435 1443.6615384615386,516.0256410256411 1542,497 C 1640.3384615384614,477.97435897435895 1780.1692307692306,508.98717948717945 1920,540 C 1920,540 1920,1080 1920,1080 Z" fill="#3d1053" opacity="0.3"/><path d="M 0,1080 C 0,1080 0,720 0,720 C 77.07948717948719,697.9282051282051 154.15897435897438,675.8564102564103 268,686 C 381.8410256410256,696.1435897435897 532.4435897435898,738.5025641025642 664,753 C 795.5564102564102,767.4974358974358 908.0666666666666,754.1333333333332 1013,741 C 1117.9333333333334,727.8666666666668 1215.2897435897435,714.9641025641026 1318,723 C 1420.7102564102565,731.0358974358974 1528.7743589743588,760.0102564102564 1630,763 C 1731.2256410256412,765.9897435897436 1825.6128205128207,742.9948717948719 1920,720 C 1920,720 1920,1080 1920,1080 Z" fill="#3d1053" opacity="0.39999999999999997"/><path d="M 0,1080 C 0,1080 0,900 0,900 C 108.11282051282049,919.4615384615386 216.22564102564098,938.923076923077 312,932 C 407.774358974359,925.076923076923 491.2102564102564,891.7692307692307 608,879 C 724.7897435897436,866.2307692307693 874.9333333333334,873.9999999999999 974,885 C 1073.0666666666666,896.0000000000001 1121.0564102564101,910.2307692307693 1236,921 C 1350.9435897435899,931.7692307692307 1532.8410256410257,939.076923076923 1658,935 C 1783.1589743589743,930.923076923077 1851.5794871794872,915.4615384615386 1920,900 C 1920,900 1920,1080 1920,1080 Z" fill="#3d1053" opacity="0.49999999999999994"/></svg>